<svg xmlns="http://www.w3.org/2000/svg" xmlns:xlink="http://www.w3.org/1999/xlink" width="673px" height="659px" viewBox="0 0 672 659" version="1.1">
<g id="surface1">
<path style=" stroke:none;fill-rule:nonzero;fill:#ffffff;fill-opacity:1;" d="M 264.113281 123.828125 C 264.511719 124.363281 266.910156 128.09375 269.570312 131.828125 C 275.960938 141.421875 278.757812 151.6875 277.824219 161.816406 C 277.027344 169.816406 271.167969 190.476562 261.320312 220.066406 C 255.726562 236.726562 256.792969 235.796875 244.945312 234.0625 L 238.953125 233.128906 L 244.8125 235.929688 C 255.59375 240.992188 255.992188 237.527344 239.621094 282.582031 C 236.558594 290.976562 232.832031 301.375 231.367188 305.640625 C 228.304688 314.570312 229.769531 314.4375 212.597656 307.238281 C 206.207031 304.574219 200.347656 302.574219 199.550781 302.839844 C 198.75 303.109375 202.210938 305.90625 207.136719 309.238281 C 224.84375 320.96875 242.148438 339.628906 252.53125 358.15625 C 254.929688 362.421875 256.925781 364.957031 256.925781 363.757812 C 256.925781 359.757812 251.46875 343.496094 247.339844 335.230469 C 242.949219 326.699219 242.949219 325.367188 248.273438 308.574219 C 249.203125 305.640625 253.464844 291.511719 257.589844 277.25 C 261.851562 262.988281 265.710938 250.722656 266.242188 250.058594 C 267.839844 248.457031 278.757812 259.121094 282.351562 265.917969 C 284.082031 269.25 285.945312 271.917969 286.34375 271.917969 C 286.746094 271.917969 289.40625 268.585938 292.203125 264.585938 C 297.792969 256.320312 311.105469 243.527344 313.234375 244.324219 C 314.566406 244.726562 320.691406 263.785156 332.273438 303.773438 C 338.53125 325.769531 338.53125 326.566406 331.472656 326.566406 C 328.144531 326.566406 328.011719 326.699219 328.144531 336.429688 L 328.144531 346.160156 L 334.535156 340.5625 C 337.996094 337.363281 344.253906 332.566406 348.511719 329.765625 C 352.640625 327.101562 356.367188 324.566406 356.632812 324.433594 C 356.898438 324.167969 353.304688 314.171875 348.78125 302.308594 C 338.53125 275.648438 326.148438 240.460938 326.148438 237.929688 C 326.148438 236.863281 327.746094 235.128906 329.875 233.929688 L 333.46875 231.929688 L 328.679688 232.730469 L 323.886719 233.527344 L 320.425781 219.667969 C 314.832031 198.207031 314.300781 194.742188 314.167969 183.144531 C 314.167969 173.679688 314.566406 171.679688 317.496094 167.28125 C 320.824219 162.484375 320.824219 162.21875 318.5625 159.683594 C 313.636719 154.085938 294.464844 139.558594 283.816406 133.160156 C 272.5 126.496094 262.914062 121.828125 264.113281 123.828125 Z M 301.65625 201.9375 C 306.980469 219.535156 311.503906 234.59375 311.503906 235.527344 C 311.503906 236.328125 307.910156 238.992188 303.386719 241.261719 C 298.992188 243.394531 293.800781 246.457031 291.804688 247.925781 L 288.210938 250.589844 L 278.890625 245.792969 C 273.699219 242.992188 269.4375 240.726562 269.171875 240.59375 C 268.773438 240.195312 273.832031 222.597656 283.417969 190.742188 C 286.480469 180.878906 288.875 171.949219 288.875 170.882812 C 288.875 169.949219 289.539062 169.28125 290.339844 169.546875 C 291.269531 169.816406 296.328125 184.476562 301.65625 201.9375 Z M 301.65625 201.9375 "/>
<path style=" stroke:none;fill-rule:nonzero;fill:#ffffff;fill-opacity:1;" d="M 373.140625 249.523438 C 373.539062 253.390625 374.074219 257.523438 374.339844 258.589844 C 374.605469 259.789062 373.941406 260.453125 372.742188 260.054688 C 368.347656 258.855469 340.527344 259.65625 339.328125 260.855469 C 338.394531 261.789062 338.929688 264.71875 341.058594 270.050781 L 344.121094 277.914062 L 358.765625 278.847656 C 366.75 279.382812 375.269531 280.046875 377.800781 280.582031 L 382.328125 281.382812 L 381.394531 289.644531 C 380.863281 294.042969 379.265625 301.109375 377.933594 305.105469 C 376.46875 309.105469 375.671875 312.570312 375.9375 312.839844 C 376.203125 313.105469 379.796875 309.371094 383.925781 304.574219 C 392.175781 294.84375 397.371094 285.648438 398.699219 278.316406 C 399.5 273.785156 399.234375 273.382812 393.640625 269.386719 C 385.789062 264.054688 381.660156 258.988281 377.933594 250.058594 C 374.074219 240.59375 372.210938 240.460938 373.140625 249.523438 Z M 373.140625 249.523438 "/>
<path style=" stroke:none;fill-rule:nonzero;fill:#ffffff;fill-opacity:1;" d="M 308.3125 276.449219 C 300.058594 284.847656 294.066406 296.042969 290.074219 311.238281 C 287.675781 320.035156 287.144531 325.769531 287.011719 343.230469 C 287.011719 367.753906 289.40625 379.882812 297.660156 396.945312 C 302.851562 407.609375 309.90625 414.273438 322.421875 420.40625 C 331.339844 424.804688 348.78125 429.203125 356.632812 429.203125 C 370.480469 429.203125 386.851562 423.070312 396.4375 414.539062 L 400.699219 410.542969 L 400.699219 328.167969 L 396.4375 332.164062 C 385.789062 342.03125 365.285156 347.628906 348.113281 345.363281 C 343.054688 344.5625 338.796875 344.164062 338.53125 344.296875 C 338.394531 344.5625 339.195312 347.628906 340.261719 351.226562 C 341.457031 354.957031 343.320312 363.890625 344.652344 371.21875 L 346.914062 384.550781 L 349.84375 375.886719 C 351.308594 371.085938 353.039062 364.957031 353.570312 362.15625 L 354.371094 357.089844 L 363.289062 357.890625 C 368.082031 358.292969 375.003906 359.359375 378.464844 360.15625 L 384.855469 361.492188 L 384.457031 377.753906 L 384.058594 393.878906 L 373.539062 399.210938 C 363.289062 404.277344 362.359375 404.542969 350.242188 404.542969 C 340.660156 404.542969 336.265625 404.011719 332.671875 402.144531 C 320.691406 396.144531 309.375 379.351562 304.183594 359.625 C 300.988281 347.496094 301.921875 325.234375 306.046875 314.4375 C 308.445312 308.171875 315.5 296.175781 321.355469 288.445312 C 322.820312 286.578125 318.5625 269.25 316.699219 269.25 C 316.03125 269.25 312.304688 272.449219 308.3125 276.449219 Z M 308.3125 276.449219 "/>
<path style=" stroke:none;fill-rule:nonzero;fill:#ffffff;fill-opacity:1;" d="M 446.625 333.367188 C 450.484375 344.027344 448.621094 349.761719 440.898438 351.761719 C 438.238281 352.425781 429.183594 353.492188 421.066406 353.894531 L 406.023438 354.824219 L 406.023438 374.019531 L 429.050781 373.886719 L 451.949219 373.886719 L 451.816406 378.953125 C 451.683594 382.152344 449.152344 389.082031 444.894531 397.613281 L 438.105469 411.207031 L 445.558594 403.210938 C 457.539062 390.148438 468.589844 374.6875 468.589844 370.953125 C 468.589844 366.554688 459.671875 347.628906 452.746094 337.496094 C 445.957031 327.367188 444.09375 326.167969 446.625 333.367188 Z M 446.625 333.367188 "/>
<path style=" stroke:none;fill-rule:nonzero;fill:#ffffff;fill-opacity:1;" d="M 376.203125 375.886719 C 372.210938 382.015625 366.085938 394.945312 366.085938 397.210938 C 366.085938 399.078125 379.398438 392.28125 380.195312 390.015625 C 380.597656 389.082031 380.730469 384.148438 380.460938 379.085938 L 380.0625 369.886719 Z M 376.203125 375.886719 "/>
<path style=" stroke:none;fill-rule:nonzero;fill:#ffffff;fill-opacity:1;" d="M 366.882812 432.136719 L 360.363281 433.601562 L 361.292969 446.398438 C 362.492188 462.257812 365.152344 476.253906 368.882812 486.519531 C 376.070312 506.246094 391.777344 514.644531 426.257812 516.910156 L 439.96875 517.976562 L 435.308594 520.910156 C 429.851562 524.375 419.203125 527.839844 413.476562 527.972656 C 406.023438 528.105469 413.875 530.371094 422.128906 530.371094 C 442.496094 530.640625 462.332031 521.707031 473.382812 507.179688 L 476.710938 502.78125 L 466.992188 492.917969 C 455.144531 481.1875 449.152344 473.722656 442.496094 463.191406 L 437.707031 455.195312 L 438.503906 462.925781 C 438.902344 467.191406 440.898438 475.1875 442.765625 480.652344 C 446.757812 492.25 446.757812 492.25 436.242188 494.515625 C 417.871094 498.382812 400.429688 492.785156 389.515625 479.453125 C 380.863281 468.925781 375.402344 452.394531 375.402344 436.933594 C 375.402344 433.46875 375.003906 430.667969 374.472656 430.667969 C 373.808594 430.800781 370.480469 431.46875 366.882812 432.136719 Z M 366.882812 432.136719 "/>
</g>
</svg>